<svg id="Layer_1" data-name="Layer 1" xmlns="http://www.w3.org/2000/svg" viewBox="0 0 141.49 86.42"><defs><style>.cls-1{fill:#fff;}</style></defs><title>airbike_white_logo_white_type</title><polygon class="cls-1" points="64.33 22.5 54.52 8.96 42.66 8.96 42.66 0.13 58.87 0.13 71.27 17.24 64.33 22.5"/><path class="cls-1" d="M56.94,44.42H35.58A22,22,0,0,1,13.84,22.21,22,22,0,0,1,35.58,0V8.83a13.39,13.39,0,0,0,0,26.77H56.94v8.83h0Z"/><polygon class="cls-1" points="96.77 44.3 80.56 44.3 68.17 27.18 75.1 21.92 84.91 35.47 96.77 35.47 96.77 44.3"/><path class="cls-1" d="M103.84,44.42V35.59a13.39,13.39,0,0,0,0-26.77H82.49V0h21.35a22,22,0,0,1,21.73,22.21A22,22,0,0,1,103.84,44.42Z"/><path class="cls-1" d="M23.67,80.39H8.45L5.94,85.88H0L13.06,56.75h6L32.12,85.88h-6ZM16.06,62.87l-5.41,12.4H21.46Z"/><path class="cls-1" d="M39.33,59.58c0,4-6,4-6,0S39.33,55.63,39.33,59.58Zm-5.49,5.7v20.6h5V65.28h-5Z"/><path class="cls-1" d="M48.16,65.37l0.37,2.37c1.59-2.54,3.7-2.91,5.78-2.91a7.78,7.78,0,0,1,5.28,2l-2.28,4.38a5.07,5.07,0,0,0-3.66-1.33c-2.66,0-5.12,1.41-5.12,5.2v10.8H43.46V65.37h4.7Z"/><path class="cls-1" d="M85.57,65.21a5.92,5.92,0,0,1-3.79,5.62c3.41,1,4.66,4.66,4.66,6.49,0,6.49-4.87,8.57-10.9,8.57H61.73V56.75H75.55C81.29,56.75,85.57,59.34,85.57,65.21ZM67.14,68.45h8.4c3.45,0,4.57-1.46,4.57-3.12,0-1.33-1.08-3.58-4.57-3.58h-8.4v6.7Zm0,12.32h8.4c2.25,0,5.45-.75,5.45-3.5s-3.2-4-5.45-4h-8.4v7.49h0Z"/><path class="cls-1" d="M95.49,59.58c0,4-6,4-6,0S95.49,55.63,95.49,59.58ZM90,65.28v20.6H95V65.28H90Z"/><path class="cls-1" d="M104.56,56.8V73.6l6.91-8.24h6.07v0.29L109.18,75l9.53,10.49v0.37h-6.12l-8-9.28v9.28H99.51V56.8h5.05Z"/><path class="cls-1" d="M125.38,77.43c0.33,2.54,2.54,4.37,6.12,4.37A8.45,8.45,0,0,0,137,79.89l3.25,3.2a12.61,12.61,0,0,1-8.82,3.33c-7.07,0-11.28-4.37-11.28-10.94,0-6.24,4.24-10.73,10.9-10.73,6.87,0,11.15,4.25,10.36,12.69h-16Zm11.15-4.22c-0.33-2.66-2.41-4-5.33-4-2.74,0-5,1.33-5.74,4h11.07Z"/></svg>