<svg id="Layer_1" data-name="Layer 1" xmlns="http://www.w3.org/2000/svg" viewBox="0 0 141.49 86.42"><defs><style>.cls-1{fill:#262626;}.cls-2{fill:#fff;}</style></defs><title>airbike_logo_white_type</title><polygon class="cls-1" points="64.33 22.5 54.52 8.96 42.66 8.96 42.66 0.13 58.87 0.13 71.27 17.24 64.33 22.5"/><path class="cls-1" d="M58.1,49.21H36.74A22,22,0,0,1,15,27,22,22,0,0,1,36.74,4.79v8.83a13.39,13.39,0,0,0,0,26.77H58.1v8.83Z" transform="translate(-1.16 -4.79)"/><polygon class="cls-1" points="96.77 44.3 80.56 44.3 68.17 27.18 75.1 21.92 84.91 35.47 96.77 35.47 96.77 44.3"/><path class="cls-1" d="M105,49.21V40.38a13.39,13.39,0,0,0,0-26.77H83.65V4.79H105A22,22,0,0,1,126.73,27,22,22,0,0,1,105,49.21Z" transform="translate(-1.16 -4.79)"/><path class="cls-2" d="M24.83,85.18H9.61L7.1,90.67H1.16L14.22,61.54h6L33.28,90.67h-6ZM17.22,67.66l-5.41,12.4H22.62Z" transform="translate(-1.16 -4.79)"/><path class="cls-2" d="M40.49,64.37c0,4-6,4-6,0S40.49,60.42,40.49,64.37ZM35,70.07v20.6H40V70.07H35Z" transform="translate(-1.16 -4.79)"/><path class="cls-2" d="M49.32,70.16l0.37,2.37c1.59-2.54,3.7-2.91,5.78-2.91a7.78,7.78,0,0,1,5.28,2L58.47,76a5.07,5.07,0,0,0-3.66-1.33c-2.66,0-5.12,1.41-5.12,5.2V90.67H44.62V70.16h4.7Z" transform="translate(-1.16 -4.79)"/><path class="cls-2" d="M86.73,70a5.92,5.92,0,0,1-3.79,5.62c3.41,1,4.66,4.66,4.66,6.49,0,6.49-4.87,8.57-10.9,8.57H62.89V61.54H76.71C82.45,61.54,86.73,64.13,86.73,70ZM68.3,73.24h8.4c3.45,0,4.57-1.46,4.57-3.12,0-1.33-1.08-3.58-4.57-3.58H68.3v6.7Zm0,12.32h8.4c2.25,0,5.45-.75,5.45-3.5s-3.2-4-5.45-4H68.3v7.49Z" transform="translate(-1.16 -4.79)"/><path class="cls-2" d="M96.65,64.37c0,4-6,4-6,0S96.65,60.42,96.65,64.37Zm-5.53,5.7v20.6h5.08V70.07H91.11Z" transform="translate(-1.16 -4.79)"/><path class="cls-2" d="M105.72,61.59V78.39l6.91-8.24h6.07v0.29l-8.36,9.36,9.53,10.49v0.37h-6.12l-8-9.28v9.28h-5.08V61.59h5.08Z" transform="translate(-1.16 -4.79)"/><path class="cls-2" d="M126.54,82.22c0.33,2.54,2.54,4.37,6.12,4.37a8.45,8.45,0,0,0,5.49-1.91l3.25,3.2a12.61,12.61,0,0,1-8.82,3.33c-7.07,0-11.28-4.37-11.28-10.94,0-6.24,4.24-10.73,10.9-10.73,6.87,0,11.15,4.25,10.36,12.69h-16ZM137.69,78c-0.33-2.66-2.41-4-5.33-4-2.74,0-5,1.33-5.74,4h11.07Z" transform="translate(-1.16 -4.79)"/></svg>