<?xml version="1.0" encoding="utf-8"?>
<!-- Generator: Adobe Illustrator 19.2.1, SVG Export Plug-In . SVG Version: 6.00 Build 0)  -->
<svg version="1.1" id="Layer_1" xmlns="http://www.w3.org/2000/svg" xmlns:xlink="http://www.w3.org/1999/xlink" x="0px" y="0px"
	 viewBox="0 0 30.1 9.7" enable-background="new 0 0 30.1 9.7" xml:space="preserve">
<path fill="#39E2AE" d="M7.8,8.6L7,6.9H2.8L2,8.6H1.4l3.2-7.1h0.6l3.2,7.1H7.8z M6.8,6.4L4.9,2.1L3,6.4H6.8z"/>
<path fill="#39E2AE" d="M9.5,2c0,0.5-0.8,0.5-0.8,0S9.5,1.5,9.5,2z M8.8,3.6v5h0.5v-5H8.8z"/>
<path fill="#39E2AE" d="M10.4,3.6l0,0.9c0.3-0.7,1-0.9,1.7-0.9c0.4,0,0.7,0.1,1.1,0.3l-0.2,0.4C12.6,4.1,12.3,4,12,4
	c-0.9,0-1.6,0.8-1.6,1.7v2.9H9.9v-5H10.4z"/>
<path fill="#176866" d="M18.8,3.5c0,0.7-0.4,1.3-1.2,1.5c0.9,0.2,1.4,1,1.4,1.8c0,1.5-1.4,1.8-2.6,1.8c-1,0-1.9,0-2.9,0V1.5
	c1,0,1.9,0,2.9,0C17.7,1.5,18.8,2.1,18.8,3.5z M14.1,4.7h2.4c0.8,0,1.7-0.3,1.7-1.3c0-1-0.9-1.5-1.8-1.5h-2.4V4.7z M14.1,8.1h2.4
	c0.9,0,2-0.2,2-1.3c0-1.1-1-1.5-2-1.5c-0.8,0-1.6,0-2.4,0V8.1z"/>
<path fill="#176866" d="M20.2,2c0,0.5-0.8,0.5-0.8,0S20.2,1.5,20.2,2z M19.5,3.6v5H20v-5H19.5z"/>
<path fill="#176866" d="M21.1,1.5v4.3l2.4-2.2h0.7v0L21.6,6l2.8,2.6v0h-0.6l-2.7-2.4v2.4h-0.5V1.5H21.1z"/>
<path fill="#176866" d="M23.7,6.1c0-1.5,1.1-2.6,2.5-2.6s2.7,0.9,2.5,2.8h-4.5c0.1,1.2,1,1.8,2,1.8c0.7,0,1.4-0.3,1.8-0.8l0.4,0.3
	c-0.5,0.6-1.4,1-2.2,1C24.8,8.7,23.7,7.7,23.7,6.1z M28.2,5.9c0-1.2-0.8-1.9-2-1.9c-1,0-1.9,0.7-2,1.9H28.2z"/>
</svg>
